<svg xmlns="http://www.w3.org/2000/svg" viewBox="0 0 64 64" width="64" height="64">
  <!-- Face -->
  <circle cx="32" cy="32" r="28" fill="#FFD966"/>
  <!-- Eyes -->
  <circle cx="22" cy="26" r="5" fill="#FFFFFF"/>
  <circle cx="42" cy="26" r="5" fill="#FFFFFF"/>
  <circle cx="23" cy="27" r="3" fill="#222222"/>
  <circle cx="43" cy="27" r="3" fill="#222222"/>
  <!-- Nose -->
  <circle cx="32" cy="36" r="6" fill="#FF3333"/>
  <!-- Mouth / smile -->
  <path d="M18 44 Q32 58 46 44" fill="none" stroke="#333333" stroke-width="2.5" stroke-linecap="round"/>
  <!-- Cheeks -->
  <circle cx="14" cy="40" r="6" fill="#FF9999" opacity="0.7"/>
  <circle cx="50" cy="40" r="6" fill="#FF9999" opacity="0.7"/>
  <!-- Hair -->
  <circle cx="6" cy="14" r="7" fill="#FF3333"/>
  <circle cx="18" cy="6" r="7" fill="#FF3333"/>
  <circle cx="32" cy="4" r="7" fill="#FF3333"/>
  <circle cx="46" cy="6" r="7" fill="#FF3333"/>
  <circle cx="58" cy="14" r="7" fill="#FF3333"/>
  <!-- Hat -->
  <polygon points="32,2 20,22 44,22" fill="#5533CC"/>
  <rect x="16" y="21" width="32" height="5" rx="2" fill="#7755EE"/>
  <!-- Hat pom-pom -->
  <circle cx="32" cy="2" r="4" fill="#FFFF00"/>
</svg>